<svg width="25" height="24.80" viewBox="0 0 122 99" fill="none" xmlns="http://www.w3.org/2000/svg">
<path d="M91 53.5C91 65.5674 86.2063 77.1405 77.6734 85.6734C69.1405 94.2063 57.5674 99 45.5 99C33.4326 99 21.8595 94.2063 13.3266 85.6734C4.79374 77.1405 0 65.5674 0 53.5C0 41.4326 4.79374 29.8595 13.3266 21.3266C21.8595 12.7937 33.4326 8 45.5 8C57.5674 8 69.1405 12.7937 77.6734 21.3266C86.2063 29.8595 91 41.4326 91 53.5V53.5ZM45.5 27.9062C45.5 27.152 45.2004 26.4287 44.6671 25.8954C44.1338 25.3621 43.4105 25.0625 42.6562 25.0625C41.902 25.0625 41.1787 25.3621 40.6454 25.8954C40.1121 26.4287 39.8125 27.152 39.8125 27.9062V59.1875C39.8127 59.6888 39.9453 60.1811 40.197 60.6145C40.4487 61.048 40.8105 61.4073 41.2457 61.6559L61.152 73.0309C61.8053 73.3839 62.5707 73.4675 63.2847 73.2636C63.9988 73.0598 64.6047 72.5847 64.9731 71.94C65.3415 71.2953 65.4432 70.532 65.2563 69.8134C65.0694 69.0947 64.6088 68.4777 63.973 68.0941L45.5 57.5381V27.9062Z" fill="#111111"/>
<path d="M79.6673 51.612V51.6112V31.2488C79.6673 28.332 80.6237 25.4921 82.3958 23.1553C82.3958 23.1553 82.3959 23.1552 82.3959 23.1551L87.7043 16.1578L87.7045 16.1576C89.8705 13.3015 91.0428 9.82552 91.0428 6.25125V3.75C91.0428 3.15867 91.2801 2.58815 91.7081 2.16488C92.1367 1.74105 92.7214 1.5 93.3346 1.5C94.9534 1.5 96.5026 2.13614 97.6423 3.26322C98.7814 4.38976 99.4182 5.9141 99.4182 7.5V22.5V24H100.918H114.417C114.417 24 114.417 24 114.417 24C115.32 24.0001 116.21 24.1983 117.025 24.5796C117.839 24.9609 118.557 25.5155 119.126 26.2023C119.696 26.8891 120.103 27.6911 120.32 28.5501C120.537 29.4091 120.558 30.3047 120.383 31.1727C120.383 31.1727 120.383 31.1728 120.383 31.1728L115.832 53.6727L115.832 53.6729C115.558 55.0297 114.816 56.254 113.729 57.1354C112.641 58.0172 111.275 58.5006 109.864 58.5H109.863H89.3271C89.327 58.5 89.3268 58.5 89.3266 58.5C87.2045 58.4993 85.1122 58.0104 83.2153 57.0728L83.0259 56.9791L83.0256 56.979C82.0131 56.4786 81.1639 55.7103 80.5716 54.7622C79.9794 53.8143 79.6668 52.7235 79.6673 51.612ZM64.5 31.875C64.5 31.3356 64.6074 30.8011 64.8165 30.3019C65.0256 29.8026 65.3326 29.3479 65.7207 28.9641C66.1088 28.5802 66.5705 28.2749 67.0797 28.0662C67.5891 27.8576 68.1355 27.75 68.6877 27.75C69.24 27.75 69.7864 27.8576 70.2957 28.0662C70.805 28.2749 71.2667 28.5802 71.6548 28.9641C72.0429 29.3479 72.3499 29.8026 72.559 30.3019C72.7681 30.8011 72.8755 31.3356 72.8755 31.875V54.375C72.8755 55.4636 72.4384 56.511 71.6548 57.2859C70.8707 58.0614 69.8037 58.5 68.6877 58.5C67.5717 58.5 66.5048 58.0614 65.7207 57.2859C64.9371 56.511 64.5 55.4636 64.5 54.375V31.875Z" fill="white" stroke="black" stroke-width="3"/>
</svg>
