<svg width="20" height="20" viewBox="0 0 24 24" fill="none" xmlns="http://www.w3.org/2000/svg">
<path d="M10.0003 1.66602C5.40866 1.66602 1.66699 5.40768 1.66699 9.99935C1.66699 14.591 5.40866 18.3327 10.0003 18.3327C14.592 18.3327 18.3337 14.591 18.3337 9.99935C18.3337 5.40768 14.592 1.66602 10.0003 1.66602ZM10.0003 16.666C6.32533 16.666 3.33366 13.6743 3.33366 9.99935C3.33366 6.32435 6.32533 3.33268 10.0003 3.33268C13.6753 3.33268 16.667 6.32435 16.667 9.99935C16.667 13.6743 13.6753 16.666 10.0003 16.666ZM12.1587 7.15768L13.3337 8.33268L10.0003 11.666L6.66699 8.33268L7.84199 7.15768L9.16699 8.47435V4.99935H10.8337V8.47435L12.1587 7.15768ZM14.167 14.166H5.83366V12.4993H14.167V14.166Z" fill="#007FFF"/>
</svg>