<svg width="25" height="24.80" viewBox="0 0 105 83" fill="none" xmlns="http://www.w3.org/2000/svg">
<path d="M58.8318 31.7075L82.7185 50.852C84.7068 52.4718 85.9176 54.6598 86.3474 57.0087H99.7377C102.625 57.0087 104.84 54.676 104.84 51.823V25.7907C104.84 22.9264 102.489 20.605 99.7377 20.605H84.1359C77.4123 13.9647 68.2954 10.2343 58.7891 10.2336H57.3761C56.2113 10.2336 54.8119 10.7203 53.8275 11.5909L38.4981 25.4622L34.174 22.3541L47.4298 10.3763L46.347 10.3747C39.2139 10.3747 32.371 12.589 26.529 16.4438L6.36639 0.828351C5.67542 0.291781 4.82209 6.67937e-05 3.94327 0C2.77437 0 1.61531 0.5116 0.840959 1.48925C-0.502175 3.18161 -0.204904 5.62776 1.50736 6.95215L98.632 82.1705C100.355 83.5002 102.825 83.1963 104.159 81.5094C105.502 79.8171 105.205 77.3709 103.493 76.0465L81.2629 58.8311C81.2347 57.3582 80.6413 55.9084 79.3943 54.9082L54.9171 35.2612L53.0353 36.9649L48.8243 33.5717L59.5717 23.8698C60.638 22.9181 62.2983 22.9789 63.2826 23.886C64.1193 24.939 64.1849 26.5802 63.2662 27.5528L58.8318 31.7075ZM5.25081 20.6034C2.36341 20.6034 0.148639 22.9377 0.148639 25.7891V51.6933C0.148639 54.5447 2.51106 56.8904 5.25081 56.8904L23.9861 56.8789L38.8332 70.1471C43.3448 73.7734 49.9481 73.0844 53.4507 68.6476L56.4234 71.1197C59.027 73.0812 62.8823 72.8218 65.0151 70.2491L67.1511 67.6505L6.55178 20.6034H5.25081Z" fill="#111111"/>
</svg>
