<svg width="35" height="30" viewBox="0 0 35 30" fill="none" xmlns="http://www.w3.org/2000/svg">
<g clip-path="url(#clip0_69_355)">
<path d="M24.375 4.375L22.5 2.5L20.625 4.375L18.75 2.5L16.875 4.375L15 2.5L13.125 4.375L11.25 2.5L9.375 4.375L7.5 2.5V20H3.75V23.75C3.75 25.825 5.425 27.5 7.5 27.5H22.5C24.575 27.5 26.25 25.825 26.25 23.75V2.5L24.375 4.375ZM23.75 23.75C23.75 24.4375 23.1875 25 22.5 25C21.8125 25 21.25 24.4375 21.25 23.75V20H10V6.25H23.75V23.75Z" fill="#233044"/>
<path d="M18.75 8.75H11.25V11.25H18.75V8.75Z" fill="#233044"/>
<path d="M22.5 8.75H20V11.25H22.5V8.75Z" fill="#233044"/>
<path d="M18.75 12.5H11.25V15H18.75V12.5Z" fill="#233044"/>
<path d="M22.5 12.5H20V15H22.5V12.5Z" fill="#233044"/>
</g>
<path d="M30.9998 2.66667C29.1598 2.66667 27.6665 4.16001 27.6665 6.00001C27.6665 7.84001 29.1598 9.33334 30.9998 9.33334C32.8398 9.33334 34.3332 7.84001 34.3332 6.00001C34.3332 4.16001 32.8398 2.66667 30.9998 2.66667ZM31.3332 7.66667H30.6665V7.00001H31.3332V7.66667ZM31.3332 6.33334H30.6665V4.33334H31.3332V6.33334Z" fill="#233044"/>
<defs>
<clipPath id="clip0_69_355">
<rect width="30" height="30" fill="white"/>
</clipPath>
</defs>
</svg>
