<svg width="18" height="13" viewBox="0 0 18 13" fill="none" xmlns="http://www.w3.org/2000/svg">
<path d="M14.625 0.375C14.0197 0.954375 13.2919 1.41 12.4852 1.70025C11.6437 1.84875 9.315 0.76875 8.1675 1.87125C7.97625 2.0625 7.74 2.25375 7.4925 2.445C6.9525 2.20875 6.12 1.84875 5.5125 1.5C4.905 1.15125 3.375 0.375 3.375 0.375L0 4.3125C0 4.3125 0.8325 5.4375 1.35 6.18C1.6875 6.675 2.10375 7.42875 2.37375 7.935L1.99125 8.385C1.926 8.51437 1.88663 8.66625 1.88663 8.82712C1.88663 9.0915 1.99012 9.33225 2.16 9.51C2.31525 9.62587 2.50988 9.69563 2.7225 9.69563C2.93513 9.69563 3.12975 9.62588 3.28725 9.50775C3.1815 9.63037 3.11963 9.78788 3.11963 9.96C3.11963 10.1771 3.21863 10.3706 3.37388 10.4989C3.53588 10.5945 3.7305 10.6508 3.9375 10.6508C4.1445 10.6508 4.33913 10.5945 4.50563 10.4966C4.37963 10.653 4.3065 10.8488 4.3065 11.0625C4.3065 11.2762 4.37962 11.472 4.50225 11.6272C4.61363 11.6666 4.743 11.6902 4.878 11.6902C5.11088 11.6902 5.32688 11.6194 5.50575 11.499C5.45738 11.6059 5.43262 11.7274 5.43262 11.8556C5.43262 12.1189 5.54062 12.3562 5.71613 12.525C5.86237 12.5914 6.0345 12.6296 6.2145 12.6296C6.46875 12.6296 6.70613 12.5531 6.90188 12.4215L7.48238 11.8961C8.01338 12.4249 8.74575 12.7522 9.55462 12.7522C9.57712 12.7522 9.60075 12.7523 9.62325 12.7511C10.179 12.7039 10.6447 12.3506 10.854 11.8612C11.0182 11.9242 11.205 11.967 11.403 11.967C11.6685 11.967 11.9149 11.8905 12.123 11.7589C12.7811 11.3235 12.6236 10.986 12.6236 10.986C12.7642 11.0479 12.9274 11.0839 13.0995 11.0839C13.4606 11.0839 13.7857 10.9241 14.0062 10.6721C14.2042 10.4685 14.3246 10.1918 14.3246 9.888C14.3246 9.67425 14.265 9.47512 14.1615 9.30525C14.1705 9.31087 14.1784 9.31087 14.1851 9.31087C14.6588 9.31087 15.0705 9.04988 15.2854 8.66513C15.3619 8.47275 15.4035 8.25675 15.4035 8.03175C15.4035 7.647 15.2797 7.29037 15.0705 7.00012L15.0739 7.00575C15.9964 6.82575 15.9626 6.3645 16.4126 5.6895C16.8446 5.13375 17.3711 4.67475 17.973 4.3305L14.625 0.375ZM14.5687 8.3175C14.0737 8.8125 13.6912 8.59875 12.8475 7.9575C12.0037 7.31625 10.3275 6.1125 10.3275 6.1125C10.3961 6.45563 10.5548 6.75375 10.7786 6.99112C11.1375 7.395 12.2063 8.3175 12.7125 8.79C13.0275 9.0825 13.8375 9.6675 13.365 10.1175C12.8925 10.5675 12.5212 10.1175 11.745 9.4875C10.9688 8.8575 9.23625 7.305 9.23625 7.305C9.23512 7.32525 9.234 7.34775 9.234 7.37138C9.234 7.66162 9.351 7.92375 9.54 8.115C9.73125 8.34 10.8 9.375 11.25 9.8475C11.7 10.32 12.0938 10.6012 11.7113 10.9725C11.3287 11.3438 10.5525 10.7587 10.125 10.32C9.46125 9.67875 8.145 8.48625 8.145 8.48625C8.14388 8.50425 8.14388 8.5245 8.14388 8.54587C8.14388 8.86537 8.25412 9.15787 8.43975 9.38962C8.76375 9.81487 9.39375 10.3661 9.77625 10.7936C10.1587 11.2211 10.3837 11.5811 9.77625 11.9186C9.16875 12.2561 8.26875 11.4236 7.875 11.0186C7.875 11.0175 7.875 11.0175 7.875 11.0164C7.875 10.9005 7.83225 10.7947 7.7625 10.7137C7.58363 10.5484 7.34175 10.446 7.07737 10.446C6.96037 10.446 6.84788 10.4662 6.74325 10.5022C6.88725 10.374 6.97275 10.194 6.97275 9.99375C6.97275 9.7935 6.88725 9.6135 6.75 9.4875C6.60825 9.38063 6.4305 9.3165 6.23812 9.3165C6.04575 9.3165 5.86687 9.38062 5.724 9.48862C5.85562 9.3615 5.93663 9.18713 5.93663 8.9925C5.93663 8.75287 5.814 8.5425 5.62837 8.41988C5.45625 8.31075 5.25038 8.24775 5.02988 8.24775C4.75538 8.24775 4.50338 8.34675 4.30762 8.50988C4.4145 8.38163 4.4775 8.21737 4.4775 8.03737C4.4775 7.818 4.38188 7.62112 4.23112 7.485C4.03087 7.29937 3.762 7.18575 3.46725 7.18575C3.25912 7.18575 3.0645 7.242 2.89688 7.341L2.14875 6.07763C1.63125 5.25638 1.02375 4.40137 1.02375 4.40137L3.58875 1.28513C3.58875 1.28513 4.5 1.84763 5.25375 2.27513C5.625 2.48888 6.26625 2.77012 6.75 2.99513C5.985 3.56888 5.34375 4.12013 5.535 4.50262C5.86912 4.74338 6.2865 4.8885 6.73762 4.8885C7.16062 4.8885 7.55438 4.76137 7.88287 4.54313C8.3025 4.26075 8.82788 4.08975 9.39375 4.08975C9.78413 4.08975 10.1554 4.17075 10.4918 4.31813C11.115 4.73887 12.2625 5.77387 13.3088 6.42637C14.625 7.38262 14.8837 8.00138 14.5687 8.31637V8.3175Z" fill="black"/>
</svg>
